<mxfile host="app.diagrams.net" agent="Mozilla/5.0 (Windows NT 10.0; Win64; x64) AppleWebKit/537.36 (KHTML, like Gecko) Chrome/134.0.0.0 Safari/537.36" version="26.1.3">
  <diagram id="R2lEEEUBdFMjLlhIrx00" name="Page-1">
    <mxGraphModel grid="1" page="1" gridSize="10" guides="1" tooltips="1" connect="1" arrows="1" fold="1" pageScale="1" pageWidth="850" pageHeight="1100" math="0" shadow="0" extFonts="Permanent Marker^https://fonts.googleapis.com/css?family=Permanent+Marker">
      <root>
        <mxCell id="0" />
        <mxCell id="1" parent="0" />
        <mxCell id="2NTmlIBb7qvFDBQlDmdx-2" value="" style="rounded=0;whiteSpace=wrap;html=1;" vertex="1" parent="1">
          <mxGeometry x="280" y="200" width="280" height="500" as="geometry" />
        </mxCell>
        <mxCell id="2NTmlIBb7qvFDBQlDmdx-3" value="Người dùng" style="shape=umlActor;verticalLabelPosition=bottom;verticalAlign=top;html=1;outlineConnect=0;" vertex="1" parent="1">
          <mxGeometry x="180" y="245" width="30" height="60" as="geometry" />
        </mxCell>
        <mxCell id="2NTmlIBb7qvFDBQlDmdx-4" value="Hệ thống" style="shape=umlActor;verticalLabelPosition=bottom;verticalAlign=top;html=1;outlineConnect=0;" vertex="1" parent="1">
          <mxGeometry x="630" y="385" width="30" height="60" as="geometry" />
        </mxCell>
        <mxCell id="2NTmlIBb7qvFDBQlDmdx-5" value="CSDL Động Cơ" style="shape=umlActor;verticalLabelPosition=bottom;verticalAlign=top;html=1;outlineConnect=0;" vertex="1" parent="1">
          <mxGeometry x="180" y="525" width="30" height="60" as="geometry" />
        </mxCell>
        <mxCell id="2NTmlIBb7qvFDBQlDmdx-6" value="&lt;font style=&quot;font-size: 10px;&quot;&gt;Nhập thông số đầu vào&lt;/font&gt;" style="rounded=1;whiteSpace=wrap;html=1;" vertex="1" parent="1">
          <mxGeometry x="365" y="250" width="110" height="50" as="geometry" />
        </mxCell>
        <mxCell id="2NTmlIBb7qvFDBQlDmdx-7" value="&lt;font style=&quot;font-size: 10px;&quot;&gt;Kiểm tra dữ liệu&lt;/font&gt;" style="rounded=1;whiteSpace=wrap;html=1;" vertex="1" parent="1">
          <mxGeometry x="365" y="320" width="110" height="50" as="geometry" />
        </mxCell>
        <mxCell id="2NTmlIBb7qvFDBQlDmdx-8" value="&lt;font style=&quot;font-size: 10px;&quot;&gt;Tính công suất động cơ&lt;/font&gt;" style="rounded=1;whiteSpace=wrap;html=1;" vertex="1" parent="1">
          <mxGeometry x="365" y="390" width="110" height="50" as="geometry" />
        </mxCell>
        <mxCell id="2NTmlIBb7qvFDBQlDmdx-9" value="&lt;font style=&quot;font-size: 10px;&quot;&gt;Phân phối tỷ số truyền&lt;/font&gt;" style="rounded=1;whiteSpace=wrap;html=1;" vertex="1" parent="1">
          <mxGeometry x="365" y="460" width="110" height="50" as="geometry" />
        </mxCell>
        <mxCell id="2NTmlIBb7qvFDBQlDmdx-10" value="&lt;font style=&quot;font-size: 10px;&quot;&gt;Xem kết quả và gợi ý động cơ&lt;/font&gt;" style="rounded=1;whiteSpace=wrap;html=1;" vertex="1" parent="1">
          <mxGeometry x="365" y="600" width="110" height="50" as="geometry" />
        </mxCell>
        <mxCell id="2NTmlIBb7qvFDBQlDmdx-11" value="&lt;font style=&quot;font-size: 10px;&quot;&gt;Lưu lịch sử tính toán&lt;/font&gt;" style="rounded=1;whiteSpace=wrap;html=1;" vertex="1" parent="1">
          <mxGeometry x="365" y="530" width="110" height="50" as="geometry" />
        </mxCell>
        <mxCell id="2NTmlIBb7qvFDBQlDmdx-19" value="" style="endArrow=none;html=1;rounded=0;entryX=0;entryY=0.5;entryDx=0;entryDy=0;" edge="1" parent="1" source="2NTmlIBb7qvFDBQlDmdx-5" target="2NTmlIBb7qvFDBQlDmdx-11">
          <mxGeometry width="50" height="50" relative="1" as="geometry">
            <mxPoint x="340" y="520" as="sourcePoint" />
            <mxPoint x="390" y="470" as="targetPoint" />
          </mxGeometry>
        </mxCell>
        <mxCell id="2NTmlIBb7qvFDBQlDmdx-20" value="" style="endArrow=none;html=1;rounded=0;entryX=0;entryY=0.5;entryDx=0;entryDy=0;" edge="1" parent="1" source="2NTmlIBb7qvFDBQlDmdx-3" target="2NTmlIBb7qvFDBQlDmdx-6">
          <mxGeometry width="50" height="50" relative="1" as="geometry">
            <mxPoint x="340" y="360" as="sourcePoint" />
            <mxPoint x="390" y="310" as="targetPoint" />
          </mxGeometry>
        </mxCell>
        <mxCell id="2NTmlIBb7qvFDBQlDmdx-21" value="" style="endArrow=none;html=1;rounded=0;exitX=1;exitY=0.5;exitDx=0;exitDy=0;" edge="1" parent="1" source="2NTmlIBb7qvFDBQlDmdx-7" target="2NTmlIBb7qvFDBQlDmdx-4">
          <mxGeometry width="50" height="50" relative="1" as="geometry">
            <mxPoint x="580" y="320" as="sourcePoint" />
            <mxPoint x="630" y="270" as="targetPoint" />
          </mxGeometry>
        </mxCell>
        <mxCell id="2NTmlIBb7qvFDBQlDmdx-22" value="" style="endArrow=none;html=1;rounded=0;" edge="1" parent="1" source="2NTmlIBb7qvFDBQlDmdx-8" target="2NTmlIBb7qvFDBQlDmdx-4">
          <mxGeometry width="50" height="50" relative="1" as="geometry">
            <mxPoint x="340" y="440" as="sourcePoint" />
            <mxPoint x="390" y="390" as="targetPoint" />
          </mxGeometry>
        </mxCell>
        <mxCell id="2NTmlIBb7qvFDBQlDmdx-23" value="" style="endArrow=none;html=1;rounded=0;exitX=1;exitY=0.5;exitDx=0;exitDy=0;" edge="1" parent="1" source="2NTmlIBb7qvFDBQlDmdx-9" target="2NTmlIBb7qvFDBQlDmdx-4">
          <mxGeometry width="50" height="50" relative="1" as="geometry">
            <mxPoint x="600" y="530" as="sourcePoint" />
            <mxPoint x="650" y="480" as="targetPoint" />
          </mxGeometry>
        </mxCell>
        <mxCell id="2NTmlIBb7qvFDBQlDmdx-24" value="" style="endArrow=none;html=1;rounded=0;exitX=1;exitY=0.5;exitDx=0;exitDy=0;" edge="1" parent="1" source="2NTmlIBb7qvFDBQlDmdx-10" target="2NTmlIBb7qvFDBQlDmdx-4">
          <mxGeometry width="50" height="50" relative="1" as="geometry">
            <mxPoint x="340" y="520" as="sourcePoint" />
            <mxPoint x="390" y="470" as="targetPoint" />
          </mxGeometry>
        </mxCell>
      </root>
    </mxGraphModel>
  </diagram>
</mxfile>
